<svg id="Layer_1" data-name="Layer 1" xmlns="http://www.w3.org/2000/svg" viewBox="0 0 24 24"><path d="M20.9,7a2.5,2.5,0,0,0-1.8-.8H6.2L5.9,3.6A.6.6,0,0,0,5.4,3l-2-.5a.7.7,0,0,0-.9.5.7.7,0,0,0,.6.9l1.4.4L5.6,15A2.4,2.4,0,0,0,8,17.2H18.2a2.4,2.4,0,0,0,2.4-2.1L21.5,9A2.5,2.5,0,0,0,20.9,7Zm-1.8,7.9a.8.8,0,0,1-.9.8H8a.8.8,0,0,1-.9-.8L6.4,7.7H19.1a1.1,1.1,0,0,1,.7.3,1.1,1.1,0,0,1,.2.8Z"/><path d="M16.8,10H14a.7.7,0,0,0-.7.7.8.8,0,0,0,.7.8h2.8a.9.9,0,0,0,.8-.8A.8.8,0,0,0,16.8,10Z"/><path d="M7.6,18.9a1.3,1.3,0,1,0,0,2.6,1.3,1.3,0,0,0,0-2.6Z"/><path d="M18.2,18.9a1.3,1.3,0,1,0,0,2.6,1.3,1.3,0,0,0,0-2.6Z"/></svg>