<svg id="Layer_1" data-name="Layer 1" xmlns="http://www.w3.org/2000/svg" viewBox="0 0 24 24"><path d="M22.7,8V7.7L21.3,4.2a3.1,3.1,0,0,0-2.9-2H5.6a3.1,3.1,0,0,0-2.9,2L1.3,7.7v.8a3.2,3.2,0,0,0,.9,2.3v5.7a5.4,5.4,0,0,0,5.5,5.3h8.6a5.4,5.4,0,0,0,5.5-5.3V10.8a3.2,3.2,0,0,0,.9-2.3ZM2.8,8.2,4.1,4.7a1.8,1.8,0,0,1,1.5-1H18.4a1.8,1.8,0,0,1,1.5,1l1.3,3.5v.3a1.8,1.8,0,0,1-3.5.1h0V8a.7.7,0,0,0-.7-.7h0a.8.8,0,0,0-.8.7v.5h0a1.8,1.8,0,0,1-1.7,1.7,1.7,1.7,0,0,1-1.7-1.8V8a.8.8,0,0,0-.8-.7.7.7,0,0,0-.7.7v.5a1.8,1.8,0,0,1-1.8,1.8A1.7,1.7,0,0,1,7.8,8.5V8A.8.8,0,0,0,7,7.3a.7.7,0,0,0-.7.7v.5a1.8,1.8,0,0,1-1.8,1.8A1.8,1.8,0,0,1,2.8,8.5ZM12,20.3H10.7V16.5a.7.7,0,0,1,.6-.7h1.4a.7.7,0,0,1,.6.7v3.8Zm4.3,0H14.8V16.5a2.1,2.1,0,0,0-2.1-2.2H11.3a2.1,2.1,0,0,0-2.1,2.2v3.8H7.7a3.8,3.8,0,0,1-4-3.8V11.7h.8A3.3,3.3,0,0,0,7,10.6a3.3,3.3,0,0,0,2.5,1.2A3.3,3.3,0,0,0,12,10.6a3.2,3.2,0,0,0,5,0,3.3,3.3,0,0,0,2.5,1.2h.8v4.8A3.8,3.8,0,0,1,16.3,20.3Z"/></svg>