<svg width="20" height="20" viewBox="0 0 20 20" fill="none" xmlns="http://www.w3.org/2000/svg">
<rect width="20" height="20" rx="10" fill="#0068FF"/>
<g clip-path="url(#clip0_24968_157914)">
<path d="M7.54029 11.6294C7.54029 11.7899 7.54614 11.9511 7.53882 12.1116C7.53151 12.2829 7.37346 12.416 7.18907 12.416C6.49907 12.416 5.80907 12.416 5.11907 12.416H3.45882C3.44785 12.416 3.43687 12.416 3.42663 12.416C3.40907 12.1304 3.43248 11.8658 3.62931 11.628C4.52492 10.5458 5.41029 9.45571 6.29931 8.36848C6.30224 8.36487 6.30443 8.36053 6.30663 8.35692C6.30736 8.35475 6.30882 8.3533 6.30956 8.35114C6.30809 8.35114 6.30663 8.35114 6.30516 8.35041C6.06956 8.35041 5.83395 8.35041 5.59834 8.34969C4.9237 8.34969 4.24834 8.34969 3.5737 8.34969H3.53858V7.50391H7.53809C7.55273 7.7562 7.53516 8.00559 7.37931 8.2174C7.25126 8.39089 7.10565 8.5521 6.97029 8.71981C6.19834 9.6762 5.42712 10.6333 4.65516 11.5904C4.64785 11.5998 4.64053 11.6092 4.62882 11.6244H4.66834C5.61151 11.6244 6.55468 11.6244 7.49785 11.6244C7.51029 11.6244 7.52199 11.6244 7.53443 11.6251C7.5359 11.6266 7.53809 11.628 7.53955 11.6294H7.54029Z" fill="white"/>
<path d="M10.8457 12.089C10.3817 12.4078 9.86297 12.5227 9.29955 12.4078C8.83638 12.3138 8.45809 12.0767 8.16541 11.7102C7.59102 10.9895 7.61736 9.96732 8.21297 9.26973C8.82907 8.54973 9.98882 8.33142 10.8559 8.95889V8.7001H11.6564V12.4165C11.5057 12.4165 11.3542 12.4179 11.2035 12.4165C11.0813 12.415 10.9803 12.3659 10.9159 12.2625C10.883 12.2105 10.8683 12.1468 10.8457 12.0897V12.089ZM9.72687 11.656C10.3678 11.6401 10.8698 11.1218 10.8544 10.4929C10.8391 9.86251 10.3093 9.37094 9.66394 9.38612C9.03029 9.4013 8.54004 9.92757 8.55541 10.5753C8.57004 11.1731 9.11004 11.6719 9.72614 11.656H9.72687Z" fill="white"/>
<path d="M15.7395 12.4548C14.6486 12.452 13.7698 11.5787 13.7734 10.5023C13.7771 9.42955 14.6625 8.56352 15.7505 8.56641C16.8327 8.57003 17.7137 9.44545 17.71 10.5146C17.7064 11.5874 16.8225 12.4577 15.7395 12.4548ZM14.5842 10.5088C14.5827 11.1414 15.1015 11.6532 15.7425 11.6532C16.3805 11.6532 16.8964 11.145 16.8993 10.5132C16.9022 9.88208 16.3834 9.3681 15.7432 9.36738C15.1037 9.36738 14.5864 9.87629 14.5849 10.5088H14.5842Z" fill="white"/>
<path d="M13.1991 12.4116C12.992 12.4116 12.7886 12.4181 12.5852 12.4094C12.4528 12.4037 12.3489 12.2801 12.3438 12.1492C12.3438 12.1355 12.3438 12.1217 12.3438 12.108C12.3438 10.5849 12.3438 9.06246 12.3438 7.53933C12.3438 7.52848 12.3438 7.51764 12.3438 7.50391H13.1998V12.4116H13.1991Z" fill="white"/>
<path d="M7.5374 11.6304C7.5374 11.6304 7.53301 11.6268 7.53125 11.625C7.53301 11.6268 7.53564 11.6286 7.5374 11.6304Z" fill="white"/>
</g>
<defs>
<clipPath id="clip0_24968_157914">
<rect width="15" height="6" fill="white" transform="translate(3 7)"/>
</clipPath>
</defs>
</svg>
